<svg xmlns="http://www.w3.org/2000/svg" xmlns:xlink="http://www.w3.org/1999/xlink" version="1.1" id="Layer_1" x="0px" y="0px" style="enable-background:new 0 0 512 512;" xml:space="preserve" viewBox="112.5 143.23 253.5 206.27">
<style type="text/css">
	.st0{fill:#6F00CD;}
	.st1{fill:#8C38FF;}
	.st2{fill-rule:evenodd;clip-rule:evenodd;}
	.st3{fill-rule:evenodd;clip-rule:evenodd;fill:#060300;}
	.st4{fill-rule:evenodd;clip-rule:evenodd;fill:#8B0000;}
	.st5{fill:none;}
	.st6{filter:url(#Adobe_OpacityMaskFilter);}
	.st7{mask:url(#SVGID_1_);}
</style>
<g>
	<polygon class="st0" points="342.8,244.7 342.8,244.7 334.7,252  "/>
	<polygon class="st0" points="349.6,238.6 349.6,238.6 342.8,244.7  "/>
</g>
<polygon class="st0" points="323.6,261.9 245.3,332.2 174.9,332.2 279.2,238.6 279.2,237.8 267.4,227.3 274.7,233.8 278.2,236.9   286.1,243.9 286.1,243.9 288.5,246.1 306.1,261.8 314.9,269.6 323.6,261.9 "/>
<polygon class="st1" points="267.4,227.3 174.1,144.2 174.9,144.2 "/>
<polygon class="st1" points="349.6,237.8 349.6,238.6 342.8,244.7 334.7,252 333.4,253.2 323.6,261.9 323.6,261.9 314.9,269.6   306.1,261.8 288.5,246.1 286.1,243.9 286.1,243.9 278.2,236.9 274.7,233.8 267.4,227.3 174.9,144.2 245.3,144.2 "/>
<polygon class="st1" points="342.8,244.7 342.8,244.8 334.7,252 "/>
<g>
	<g>
		<g id="Layer1000_00000080192151917271450420000004984904355456653230_">
			<path class="st2" d="M309.2,277.8c38,6.8,47.8,39.4,48.1,40.4c-10.3-49.8-75.6-51.4-75.6-51.4c-3.7-0.2-18.6-1-18.6-1     c-25.1-3.3-25.3-30.7-25.3-30.7c0.2-25.2,19.7-32,19.7-32c5.6-2.4,16.5-0.8,16.5-0.8c13.3,2.9,38.1,16.8,38.1,16.8l0.1,3.9     c0.2,3.3,6.4,6.1,6.4,6.1c7.7,3.8,13.7,11.7,13.7,11.7c0.4-1.2,6.5-5.9,6.5-5.9c-6.9-0.8-11.7-7.1-11.7-7.1c-1.1-1-0.2-1-0.2-1     c1.7-0.4-1-3.7-1-3.7c-2-3.4-5.1-8.7-5.1-8.7l-4.6,0.3c-1.5-1-8.2-9.1-8.2-9.1l0.7,4.9c-3.7-1.5-9.1-8.7-9.1-8.7l0.5,3.7     c-6.2-2.1-8.2-6.6-8.2-6.6v2.8c-7-4.5-20.3-7.7-20.3-7.7H261c-24.2-6-16.3-33.2-16.3-33.2c-36.7-21.6-120.3-17.2-120.3-17.2     c88.5,4.2,115.5,21.7,115.5,21.7c0.9,11.5,10.1,33,10.1,33c-21.9,10.8-19.2,41.7-19.2,41.7c3,32.7,32,33.8,32,33.8     c4,0.1,18.5,0.4,18.5,0.4c56.4,4.6,64.9,75.3,64.9,75.3C346.3,305.2,309.2,277.8,309.2,277.8z M321.8,221.3     c0.6,0.3,2.5,3.6,2.6,3.8c-1.4-0.6-2.6-2.2-2.6-2.2L321.8,221.3z"/>
			<path class="st3" d="M324.4,225.1c-1.4-0.6-2.6-2.2-2.6-2.2l0.1-1.5C322.4,221.6,324.3,224.9,324.4,225.1z"/>
		</g>
		<g id="Layer1001_00000127730128018121060600000009205048703580476838_">
			<path id="path5_00000111179400268879635020000017642417269222788260_" class="st3" d="M112.5,180.3c0,0,61.4-16.6,126.4-13     l1.1,5.1C240,172.3,182.8,167.1,112.5,180.3z"/>
		</g>
		<g id="Layer1002_00000082348675559426674230000012290027812788546226_">
			<path id="path8_00000121997022001205741710000002475778167618966198_" class="st3" d="M242.1,181.5l-1.5-5.5     c0,0-52.4,3.4-109,43.2C131.6,219.3,190.7,181.5,242.1,181.5z"/>
		</g>
		<g id="Layer1003_00000183954929466298701760000002904820123607144616_">
			<path class="st4" d="M324.4,225.1c-1.4-0.6-2.6-2.2-2.6-2.2l0.1-1.5C322.4,221.6,324.3,224.9,324.4,225.1z"/>
		</g>
	</g>
</g>
<line class="st5" x1="249.3" y1="0" x2="262.7" y2="39.8"/>
<line class="st5" x1="242.9" y1="172.6" x2="269.1" y2="198"/>
<line class="st5" x1="449.7" y1="131.2" x2="437" y2="119.7"/>
<defs>
	<filter id="Adobe_OpacityMaskFilter" filterUnits="userSpaceOnUse" x="229" y="184" width="137" height="136">
		<feColorMatrix type="matrix" values="1 0 0 0 0  0 1 0 0 0  0 0 1 0 0  0 0 0 1 0"/>
	</filter>
</defs>
<mask maskUnits="userSpaceOnUse" x="229" y="184" width="137" height="136" id="SVGID_1_">
	<g class="st6">
		<polygon class="st0" points="323.6,261.9 245.3,332.2 174.9,332.2 279.2,238.6 279.2,237.8 267.4,227.3 274.7,233.8 278.2,236.9     286.1,243.9 286.1,243.9 288.5,246.1 306.1,261.8 314.9,269.6 323.6,261.9   "/>
	</g>
</mask>
<g class="st7">
	<g>
		<image style="overflow:visible;" width="137" height="136" xlink:href="A3578C9C.png" transform="matrix(1 0 0 1 229 184)">
		</image>
	</g>
</g>
</svg>